<mxfile host="Electron" agent="Mozilla/5.0 (Windows NT 10.0; Win64; x64) AppleWebKit/537.36 (KHTML, like Gecko) draw.io/24.7.17 Chrome/128.0.6613.36 Electron/32.0.1 Safari/537.36" version="24.7.17">
  <diagram name="Page-1" id="5YcsOGrEvSyzk946mdGX">
    <mxGraphModel dx="1609" dy="1119" grid="1" gridSize="10" guides="1" tooltips="1" connect="1" arrows="1" fold="1" page="1" pageScale="1" pageWidth="827" pageHeight="1169" math="0" shadow="0">
      <root>
        <mxCell id="0" />
        <mxCell id="1" parent="0" />
        <mxCell id="b2tIxBLIy9pq_DiuzZ-M-1" value="UX Design&#xa;Learning Journey" style="ellipse;aspect=fixed;strokeWidth=3;whiteSpace=wrap;fillColor=#fa6800;fontColor=#FFFFFF;strokeColor=#C73500;fontSize=22;fontStyle=1" vertex="1" parent="1">
          <mxGeometry x="465" y="146" width="219" height="219" as="geometry" />
        </mxCell>
        <mxCell id="b2tIxBLIy9pq_DiuzZ-M-2" value="Stakeholders" style="rounded=1;absoluteArcSize=1;arcSize=14;whiteSpace=wrap;strokeWidth=2;fillColor=#eeeeee;strokeColor=#36393d;" vertex="1" parent="1">
          <mxGeometry x="730" y="192" width="112" height="38" as="geometry" />
        </mxCell>
        <mxCell id="b2tIxBLIy9pq_DiuzZ-M-3" value="Identify Roles" style="rounded=1;absoluteArcSize=1;arcSize=14;whiteSpace=wrap;strokeWidth=2;fillColor=#eeeeee;strokeColor=#36393d;" vertex="1" parent="1">
          <mxGeometry x="880" y="146" width="118" height="38" as="geometry" />
        </mxCell>
        <mxCell id="b2tIxBLIy9pq_DiuzZ-M-4" value="Capturing Requirements" style="rounded=1;absoluteArcSize=1;arcSize=14;whiteSpace=wrap;strokeWidth=2;fillColor=#ffcccc;strokeColor=#36393d;" vertex="1" parent="1">
          <mxGeometry x="634" y="352" width="193" height="38" as="geometry" />
        </mxCell>
        <mxCell id="b2tIxBLIy9pq_DiuzZ-M-5" value="Gather Project Needs" style="rounded=1;absoluteArcSize=1;arcSize=14;whiteSpace=wrap;strokeWidth=2;fillColor=#ffcccc;strokeColor=#36393d;" vertex="1" parent="1">
          <mxGeometry x="761.5" y="447" width="174" height="38" as="geometry" />
        </mxCell>
        <mxCell id="b2tIxBLIy9pq_DiuzZ-M-6" value="UX Research" style="rounded=1;absoluteArcSize=1;arcSize=14;whiteSpace=wrap;strokeWidth=2;fillColor=#fad9d5;strokeColor=#ae4132;" vertex="1" parent="1">
          <mxGeometry x="314" y="310" width="108" height="38" as="geometry" />
        </mxCell>
        <mxCell id="b2tIxBLIy9pq_DiuzZ-M-7" value="Research Methods" style="rounded=1;absoluteArcSize=1;arcSize=14;whiteSpace=wrap;strokeWidth=2;fillColor=#fad9d5;strokeColor=#ae4132;" vertex="1" parent="1">
          <mxGeometry x="125" y="364" width="148" height="38" as="geometry" />
        </mxCell>
        <mxCell id="b2tIxBLIy9pq_DiuzZ-M-8" value="User Insights" style="rounded=1;absoluteArcSize=1;arcSize=14;whiteSpace=wrap;strokeWidth=2;fillColor=#fad9d5;strokeColor=#ae4132;" vertex="1" parent="1">
          <mxGeometry x="97" y="214" width="111" height="38" as="geometry" />
        </mxCell>
        <mxCell id="b2tIxBLIy9pq_DiuzZ-M-9" value="Competitive Analysis" style="rounded=1;absoluteArcSize=1;arcSize=14;whiteSpace=wrap;strokeWidth=2;fillColor=#ffe6cc;strokeColor=#d79b00;" vertex="1" parent="1">
          <mxGeometry x="350" y="90" width="169" height="38" as="geometry" />
        </mxCell>
        <mxCell id="b2tIxBLIy9pq_DiuzZ-M-10" value="Competitor Research" style="rounded=1;absoluteArcSize=1;arcSize=14;whiteSpace=wrap;strokeWidth=2;fillColor=#ffe6cc;strokeColor=#d79b00;" vertex="1" parent="1">
          <mxGeometry x="133" y="79" width="170" height="38" as="geometry" />
        </mxCell>
        <mxCell id="b2tIxBLIy9pq_DiuzZ-M-11" value="User Expectations" style="rounded=1;absoluteArcSize=1;arcSize=14;whiteSpace=wrap;strokeWidth=2;fillColor=#ffe6cc;strokeColor=#d79b00;" vertex="1" parent="1">
          <mxGeometry x="273" y="20" width="149" height="38" as="geometry" />
        </mxCell>
        <mxCell id="b2tIxBLIy9pq_DiuzZ-M-12" value="User Analysis" style="rounded=1;absoluteArcSize=1;arcSize=14;whiteSpace=wrap;strokeWidth=2;fillColor=#e1d5e7;strokeColor=#9673a6;" vertex="1" parent="1">
          <mxGeometry x="250" y="192" width="113" height="38" as="geometry" />
        </mxCell>
        <mxCell id="b2tIxBLIy9pq_DiuzZ-M-13" value="Behaviour Analysis" style="rounded=1;absoluteArcSize=1;arcSize=14;whiteSpace=wrap;strokeWidth=2;fillColor=#e1d5e7;strokeColor=#9673a6;" vertex="1" parent="1">
          <mxGeometry x="81" y="128" width="152" height="38" as="geometry" />
        </mxCell>
        <mxCell id="b2tIxBLIy9pq_DiuzZ-M-14" value="Personas" style="rounded=1;absoluteArcSize=1;arcSize=14;whiteSpace=wrap;strokeWidth=2;fillColor=#cdeb8b;strokeColor=#36393d;" vertex="1" parent="1">
          <mxGeometry x="610" y="409" width="82" height="38" as="geometry" />
        </mxCell>
        <mxCell id="b2tIxBLIy9pq_DiuzZ-M-15" value="Target User Representation" style="rounded=1;absoluteArcSize=1;arcSize=14;whiteSpace=wrap;strokeWidth=2;fillColor=#cdeb8b;strokeColor=#36393d;" vertex="1" parent="1">
          <mxGeometry x="490" y="540" width="216" height="38" as="geometry" />
        </mxCell>
        <mxCell id="b2tIxBLIy9pq_DiuzZ-M-16" value="Characteristics" style="rounded=1;absoluteArcSize=1;arcSize=14;whiteSpace=wrap;strokeWidth=2;fillColor=#cdeb8b;strokeColor=#36393d;" vertex="1" parent="1">
          <mxGeometry x="730" y="502" width="127" height="38" as="geometry" />
        </mxCell>
        <mxCell id="b2tIxBLIy9pq_DiuzZ-M-17" value="Empathy Mapping" style="rounded=1;absoluteArcSize=1;arcSize=14;whiteSpace=wrap;strokeWidth=2;fillColor=#b0e3e6;strokeColor=#0e8088;" vertex="1" parent="1">
          <mxGeometry x="316" y="380" width="146" height="38" as="geometry" />
        </mxCell>
        <mxCell id="b2tIxBLIy9pq_DiuzZ-M-18" value="Visualise Emotions" style="rounded=1;absoluteArcSize=1;arcSize=14;whiteSpace=wrap;strokeWidth=2;fillColor=#b0e3e6;strokeColor=#0e8088;" vertex="1" parent="1">
          <mxGeometry x="163" y="442" width="153" height="38" as="geometry" />
        </mxCell>
        <mxCell id="b2tIxBLIy9pq_DiuzZ-M-19" value="User Thoughts" style="rounded=1;absoluteArcSize=1;arcSize=14;whiteSpace=wrap;strokeWidth=2;fillColor=#b0e3e6;strokeColor=#0e8088;" vertex="1" parent="1">
          <mxGeometry x="111" y="280" width="122" height="38" as="geometry" />
        </mxCell>
        <mxCell id="b2tIxBLIy9pq_DiuzZ-M-20" value="Journey Mapping" style="rounded=1;absoluteArcSize=1;arcSize=14;whiteSpace=wrap;strokeWidth=2;fillColor=#d5e8d4;strokeColor=#82b366;" vertex="1" parent="1">
          <mxGeometry x="686" y="144" width="140" height="38" as="geometry" />
        </mxCell>
        <mxCell id="b2tIxBLIy9pq_DiuzZ-M-21" value="Identify Pain Points" style="rounded=1;absoluteArcSize=1;arcSize=14;whiteSpace=wrap;strokeWidth=2;fillColor=#d5e8d4;strokeColor=#82b366;" vertex="1" parent="1">
          <mxGeometry x="696" y="79" width="158" height="38" as="geometry" />
        </mxCell>
        <mxCell id="b2tIxBLIy9pq_DiuzZ-M-22" value="Improvement Opportunities" style="rounded=1;absoluteArcSize=1;arcSize=14;whiteSpace=wrap;strokeWidth=2;fillColor=#d5e8d4;strokeColor=#82b366;" vertex="1" parent="1">
          <mxGeometry x="872" y="70" width="218" height="38" as="geometry" />
        </mxCell>
        <mxCell id="b2tIxBLIy9pq_DiuzZ-M-23" value="User Stories" style="rounded=1;absoluteArcSize=1;arcSize=14;whiteSpace=wrap;strokeWidth=2;fillColor=#eeeeee;strokeColor=#36393d;" vertex="1" parent="1">
          <mxGeometry x="736" y="246" width="106" height="38" as="geometry" />
        </mxCell>
        <mxCell id="b2tIxBLIy9pq_DiuzZ-M-24" value="Capture User Scenarios" style="rounded=1;absoluteArcSize=1;arcSize=14;whiteSpace=wrap;strokeWidth=2;fillColor=#eeeeee;strokeColor=#36393d;" vertex="1" parent="1">
          <mxGeometry x="862" y="230" width="186" height="38" as="geometry" />
        </mxCell>
        <mxCell id="b2tIxBLIy9pq_DiuzZ-M-26" value="KPIs" style="rounded=1;arcSize=40;strokeWidth=2;fillColor=#e3c800;fontColor=#000000;strokeColor=#B09500;" vertex="1" parent="1">
          <mxGeometry x="341" y="241" width="70" height="48" as="geometry" />
        </mxCell>
        <mxCell id="b2tIxBLIy9pq_DiuzZ-M-27" value="Measure UX Success" style="rounded=1;absoluteArcSize=1;arcSize=14;whiteSpace=wrap;strokeWidth=2;fillColor=#e3c800;strokeColor=#B09500;fontColor=#000000;" vertex="1" parent="1">
          <mxGeometry x="294.5" y="144" width="163" height="38" as="geometry" />
        </mxCell>
        <mxCell id="b2tIxBLIy9pq_DiuzZ-M-28" value="Prototyping" style="rounded=1;absoluteArcSize=1;arcSize=14;whiteSpace=wrap;strokeWidth=2;fillColor=#dae8fc;strokeColor=#6c8ebf;" vertex="1" parent="1">
          <mxGeometry x="565" y="90" width="102" height="38" as="geometry" />
        </mxCell>
        <mxCell id="b2tIxBLIy9pq_DiuzZ-M-29" value="Visualise Solutions" style="rounded=1;absoluteArcSize=1;arcSize=14;whiteSpace=wrap;strokeWidth=2;fillColor=#dae8fc;strokeColor=#6c8ebf;" vertex="1" parent="1">
          <mxGeometry x="583" y="26" width="153" height="38" as="geometry" />
        </mxCell>
        <mxCell id="b2tIxBLIy9pq_DiuzZ-M-30" value="Test Concepts" style="rounded=1;absoluteArcSize=1;arcSize=14;whiteSpace=wrap;strokeWidth=2;fillColor=#dae8fc;strokeColor=#6c8ebf;" vertex="1" parent="1">
          <mxGeometry x="445" y="20" width="120" height="38" as="geometry" />
        </mxCell>
        <mxCell id="b2tIxBLIy9pq_DiuzZ-M-31" value="UX Testing" style="rounded=1;absoluteArcSize=1;arcSize=14;whiteSpace=wrap;strokeWidth=2;fillColor=#bac8d3;strokeColor=#23445d;" vertex="1" parent="1">
          <mxGeometry x="503" y="380" width="94" height="38" as="geometry" />
        </mxCell>
        <mxCell id="b2tIxBLIy9pq_DiuzZ-M-32" value="User Feedback" style="rounded=1;absoluteArcSize=1;arcSize=14;whiteSpace=wrap;strokeWidth=2;fillColor=#bac8d3;strokeColor=#23445d;" vertex="1" parent="1">
          <mxGeometry x="351" y="428" width="126" height="38" as="geometry" />
        </mxCell>
        <mxCell id="b2tIxBLIy9pq_DiuzZ-M-33" value="Design Refinements" style="rounded=1;absoluteArcSize=1;arcSize=14;whiteSpace=wrap;strokeWidth=2;fillColor=#bac8d3;strokeColor=#23445d;" vertex="1" parent="1">
          <mxGeometry x="441.5" y="480" width="161" height="38" as="geometry" />
        </mxCell>
        <mxCell id="b2tIxBLIy9pq_DiuzZ-M-34" value="Usability and Accessibility" style="rounded=1;absoluteArcSize=1;arcSize=14;whiteSpace=wrap;strokeWidth=2;fillColor=#ffcccc;strokeColor=#36393d;" vertex="1" parent="1">
          <mxGeometry x="706" y="300" width="207" height="38" as="geometry" />
        </mxCell>
        <mxCell id="b2tIxBLIy9pq_DiuzZ-M-35" value="Ensure Usability Standards" style="rounded=1;absoluteArcSize=1;arcSize=14;whiteSpace=wrap;strokeWidth=2;fillColor=#ffcccc;strokeColor=#36393d;" vertex="1" parent="1">
          <mxGeometry x="850" y="390" width="210" height="38" as="geometry" />
        </mxCell>
        <mxCell id="b2tIxBLIy9pq_DiuzZ-M-36" value="Accessibility Compliance" style="rounded=1;absoluteArcSize=1;arcSize=14;whiteSpace=wrap;strokeWidth=2;fillColor=#ffcccc;strokeColor=#36393d;" vertex="1" parent="1">
          <mxGeometry x="980" y="326" width="198" height="38" as="geometry" />
        </mxCell>
        <mxCell id="b2tIxBLIy9pq_DiuzZ-M-37" style="endArrow=none;rounded=0;" edge="1" parent="1" source="b2tIxBLIy9pq_DiuzZ-M-1" target="b2tIxBLIy9pq_DiuzZ-M-2">
          <mxGeometry relative="1" as="geometry" />
        </mxCell>
        <mxCell id="b2tIxBLIy9pq_DiuzZ-M-38" style="endArrow=none;rounded=0;" edge="1" parent="1" source="b2tIxBLIy9pq_DiuzZ-M-1" target="b2tIxBLIy9pq_DiuzZ-M-4">
          <mxGeometry relative="1" as="geometry" />
        </mxCell>
        <mxCell id="b2tIxBLIy9pq_DiuzZ-M-39" style="endArrow=none;rounded=0;" edge="1" parent="1" source="b2tIxBLIy9pq_DiuzZ-M-1" target="b2tIxBLIy9pq_DiuzZ-M-6">
          <mxGeometry relative="1" as="geometry" />
        </mxCell>
        <mxCell id="b2tIxBLIy9pq_DiuzZ-M-40" style="endArrow=none;rounded=0;" edge="1" parent="1" source="b2tIxBLIy9pq_DiuzZ-M-1" target="b2tIxBLIy9pq_DiuzZ-M-9">
          <mxGeometry relative="1" as="geometry" />
        </mxCell>
        <mxCell id="b2tIxBLIy9pq_DiuzZ-M-41" style="endArrow=none;rounded=0;" edge="1" parent="1" source="b2tIxBLIy9pq_DiuzZ-M-1" target="b2tIxBLIy9pq_DiuzZ-M-12">
          <mxGeometry relative="1" as="geometry" />
        </mxCell>
        <mxCell id="b2tIxBLIy9pq_DiuzZ-M-42" style="endArrow=none;rounded=0;" edge="1" parent="1" source="b2tIxBLIy9pq_DiuzZ-M-1" target="b2tIxBLIy9pq_DiuzZ-M-14">
          <mxGeometry relative="1" as="geometry" />
        </mxCell>
        <mxCell id="b2tIxBLIy9pq_DiuzZ-M-43" style="endArrow=none;rounded=0;" edge="1" parent="1" source="b2tIxBLIy9pq_DiuzZ-M-1" target="b2tIxBLIy9pq_DiuzZ-M-17">
          <mxGeometry relative="1" as="geometry" />
        </mxCell>
        <mxCell id="b2tIxBLIy9pq_DiuzZ-M-44" style="endArrow=none;rounded=0;" edge="1" parent="1" source="b2tIxBLIy9pq_DiuzZ-M-1" target="b2tIxBLIy9pq_DiuzZ-M-20">
          <mxGeometry relative="1" as="geometry" />
        </mxCell>
        <mxCell id="b2tIxBLIy9pq_DiuzZ-M-45" style="endArrow=none;rounded=0;" edge="1" parent="1" source="b2tIxBLIy9pq_DiuzZ-M-1" target="b2tIxBLIy9pq_DiuzZ-M-23">
          <mxGeometry relative="1" as="geometry" />
        </mxCell>
        <mxCell id="b2tIxBLIy9pq_DiuzZ-M-46" style="endArrow=none;rounded=0;" edge="1" parent="1" source="b2tIxBLIy9pq_DiuzZ-M-1" target="b2tIxBLIy9pq_DiuzZ-M-26">
          <mxGeometry relative="1" as="geometry" />
        </mxCell>
        <mxCell id="b2tIxBLIy9pq_DiuzZ-M-47" style="endArrow=none;rounded=0;" edge="1" parent="1" source="b2tIxBLIy9pq_DiuzZ-M-1" target="b2tIxBLIy9pq_DiuzZ-M-28">
          <mxGeometry relative="1" as="geometry" />
        </mxCell>
        <mxCell id="b2tIxBLIy9pq_DiuzZ-M-48" style="endArrow=none;rounded=0;" edge="1" parent="1" source="b2tIxBLIy9pq_DiuzZ-M-1" target="b2tIxBLIy9pq_DiuzZ-M-31">
          <mxGeometry relative="1" as="geometry" />
        </mxCell>
        <mxCell id="b2tIxBLIy9pq_DiuzZ-M-49" style="endArrow=none;rounded=0;" edge="1" parent="1" source="b2tIxBLIy9pq_DiuzZ-M-1" target="b2tIxBLIy9pq_DiuzZ-M-34">
          <mxGeometry relative="1" as="geometry" />
        </mxCell>
        <mxCell id="b2tIxBLIy9pq_DiuzZ-M-50" style="endArrow=none;rounded=0;" edge="1" parent="1" source="b2tIxBLIy9pq_DiuzZ-M-2" target="b2tIxBLIy9pq_DiuzZ-M-3">
          <mxGeometry relative="1" as="geometry" />
        </mxCell>
        <mxCell id="b2tIxBLIy9pq_DiuzZ-M-51" style="endArrow=none;rounded=0;" edge="1" parent="1" source="b2tIxBLIy9pq_DiuzZ-M-4" target="b2tIxBLIy9pq_DiuzZ-M-5">
          <mxGeometry relative="1" as="geometry" />
        </mxCell>
        <mxCell id="b2tIxBLIy9pq_DiuzZ-M-52" style="endArrow=none;rounded=0;" edge="1" parent="1" source="b2tIxBLIy9pq_DiuzZ-M-6" target="b2tIxBLIy9pq_DiuzZ-M-7">
          <mxGeometry relative="1" as="geometry" />
        </mxCell>
        <mxCell id="b2tIxBLIy9pq_DiuzZ-M-53" style="endArrow=none;rounded=0;" edge="1" parent="1" source="b2tIxBLIy9pq_DiuzZ-M-6" target="b2tIxBLIy9pq_DiuzZ-M-8">
          <mxGeometry relative="1" as="geometry" />
        </mxCell>
        <mxCell id="b2tIxBLIy9pq_DiuzZ-M-54" style="endArrow=none;rounded=0;" edge="1" parent="1" source="b2tIxBLIy9pq_DiuzZ-M-9" target="b2tIxBLIy9pq_DiuzZ-M-10">
          <mxGeometry relative="1" as="geometry" />
        </mxCell>
        <mxCell id="b2tIxBLIy9pq_DiuzZ-M-55" style="endArrow=none;rounded=0;" edge="1" parent="1" source="b2tIxBLIy9pq_DiuzZ-M-9" target="b2tIxBLIy9pq_DiuzZ-M-11">
          <mxGeometry relative="1" as="geometry" />
        </mxCell>
        <mxCell id="b2tIxBLIy9pq_DiuzZ-M-56" style="endArrow=none;rounded=0;" edge="1" parent="1" source="b2tIxBLIy9pq_DiuzZ-M-12" target="b2tIxBLIy9pq_DiuzZ-M-13">
          <mxGeometry relative="1" as="geometry" />
        </mxCell>
        <mxCell id="b2tIxBLIy9pq_DiuzZ-M-57" style="endArrow=none;rounded=0;" edge="1" parent="1" source="b2tIxBLIy9pq_DiuzZ-M-14" target="b2tIxBLIy9pq_DiuzZ-M-15">
          <mxGeometry relative="1" as="geometry" />
        </mxCell>
        <mxCell id="b2tIxBLIy9pq_DiuzZ-M-58" style="endArrow=none;rounded=0;" edge="1" parent="1" source="b2tIxBLIy9pq_DiuzZ-M-14" target="b2tIxBLIy9pq_DiuzZ-M-16">
          <mxGeometry relative="1" as="geometry" />
        </mxCell>
        <mxCell id="b2tIxBLIy9pq_DiuzZ-M-59" style="endArrow=none;rounded=0;" edge="1" parent="1" source="b2tIxBLIy9pq_DiuzZ-M-17" target="b2tIxBLIy9pq_DiuzZ-M-18">
          <mxGeometry relative="1" as="geometry" />
        </mxCell>
        <mxCell id="b2tIxBLIy9pq_DiuzZ-M-60" style="endArrow=none;rounded=0;" edge="1" parent="1" source="b2tIxBLIy9pq_DiuzZ-M-17" target="b2tIxBLIy9pq_DiuzZ-M-19">
          <mxGeometry relative="1" as="geometry" />
        </mxCell>
        <mxCell id="b2tIxBLIy9pq_DiuzZ-M-61" style="endArrow=none;rounded=0;" edge="1" parent="1" source="b2tIxBLIy9pq_DiuzZ-M-20" target="b2tIxBLIy9pq_DiuzZ-M-21">
          <mxGeometry relative="1" as="geometry" />
        </mxCell>
        <mxCell id="b2tIxBLIy9pq_DiuzZ-M-62" style="endArrow=none;rounded=0;" edge="1" parent="1" source="b2tIxBLIy9pq_DiuzZ-M-20" target="b2tIxBLIy9pq_DiuzZ-M-22">
          <mxGeometry relative="1" as="geometry" />
        </mxCell>
        <mxCell id="b2tIxBLIy9pq_DiuzZ-M-63" style="endArrow=none;rounded=0;" edge="1" parent="1" source="b2tIxBLIy9pq_DiuzZ-M-23" target="b2tIxBLIy9pq_DiuzZ-M-24">
          <mxGeometry relative="1" as="geometry" />
        </mxCell>
        <mxCell id="b2tIxBLIy9pq_DiuzZ-M-65" style="endArrow=none;rounded=0;" edge="1" parent="1" source="b2tIxBLIy9pq_DiuzZ-M-26" target="b2tIxBLIy9pq_DiuzZ-M-27">
          <mxGeometry relative="1" as="geometry" />
        </mxCell>
        <mxCell id="b2tIxBLIy9pq_DiuzZ-M-66" style="endArrow=none;rounded=0;" edge="1" parent="1" source="b2tIxBLIy9pq_DiuzZ-M-28" target="b2tIxBLIy9pq_DiuzZ-M-29">
          <mxGeometry relative="1" as="geometry" />
        </mxCell>
        <mxCell id="b2tIxBLIy9pq_DiuzZ-M-67" style="endArrow=none;rounded=0;" edge="1" parent="1" source="b2tIxBLIy9pq_DiuzZ-M-28" target="b2tIxBLIy9pq_DiuzZ-M-30">
          <mxGeometry relative="1" as="geometry" />
        </mxCell>
        <mxCell id="b2tIxBLIy9pq_DiuzZ-M-68" style="endArrow=none;rounded=0;" edge="1" parent="1" source="b2tIxBLIy9pq_DiuzZ-M-31" target="b2tIxBLIy9pq_DiuzZ-M-32">
          <mxGeometry relative="1" as="geometry" />
        </mxCell>
        <mxCell id="b2tIxBLIy9pq_DiuzZ-M-69" style="endArrow=none;rounded=0;" edge="1" parent="1" source="b2tIxBLIy9pq_DiuzZ-M-31" target="b2tIxBLIy9pq_DiuzZ-M-33">
          <mxGeometry relative="1" as="geometry" />
        </mxCell>
        <mxCell id="b2tIxBLIy9pq_DiuzZ-M-70" style="endArrow=none;rounded=0;" edge="1" parent="1" source="b2tIxBLIy9pq_DiuzZ-M-34" target="b2tIxBLIy9pq_DiuzZ-M-35">
          <mxGeometry relative="1" as="geometry" />
        </mxCell>
        <mxCell id="b2tIxBLIy9pq_DiuzZ-M-71" style="endArrow=none;rounded=0;" edge="1" parent="1" source="b2tIxBLIy9pq_DiuzZ-M-34" target="b2tIxBLIy9pq_DiuzZ-M-36">
          <mxGeometry relative="1" as="geometry" />
        </mxCell>
      </root>
    </mxGraphModel>
  </diagram>
</mxfile>
